<svg width="42" height="42" viewBox="0 0 42 42" fill="none" xmlns="http://www.w3.org/2000/svg">
<circle cx="21.4424" cy="21.3149" r="20.5232" fill="#1B1B1B"/>
<path d="M21.6517 21.6932H24.1737V24.3657H21.6517V21.6932Z" fill="white"/>
<path d="M14.2742 21.6932H18.8281V24.3654H14.2742V21.6932Z" fill="white"/>
<path d="M26.4692 17.2141H26.1304C25.1894 18.1175 23.9097 18.7197 22.517 18.7197C21.1244 18.7197 19.8446 18.1551 18.9037 17.2141H18.1509C17.2099 18.1551 15.9301 18.7197 14.5375 18.7197C13.4459 18.7197 12.4297 18.3809 11.6016 17.7787V19.8112H10.1713C9.98311 19.8112 9.79492 19.9994 9.79492 20.1876V25.8712C9.79492 26.097 9.98311 26.2476 10.1713 26.2476H11.6016V28.4683C11.6016 28.6565 11.7522 28.8447 11.978 28.8447H26.5068C26.695 28.8447 26.8832 28.6565 26.8832 28.4683V17.5905C26.8456 17.3647 26.695 17.2141 26.4692 17.2141ZM19.5435 24.742C19.5435 24.9678 19.3553 25.1184 19.1671 25.1184H13.8976C13.6718 25.1184 13.5212 24.9678 13.5212 24.742V21.3168C13.5212 21.091 13.6718 20.9404 13.8976 20.9404H19.2048C19.393 20.9404 19.5812 21.091 19.5812 21.3168V24.742H19.5435ZM24.926 24.742C24.926 24.9678 24.7378 25.1184 24.5496 25.1184H21.2749C21.0491 25.1184 20.8986 24.9678 20.8986 24.742V21.3168C20.8986 21.091 21.0491 20.9404 21.2749 20.9404H24.5496C24.7378 20.9404 24.926 21.091 24.926 21.3168V24.742Z" fill="white"/>
<path d="M27.599 27.0004L30.7607 28.6941V17.327L27.599 19.0208V27.0004Z" fill="white"/>
<path d="M33.5085 17.1764H31.5136V28.8446H33.5085C33.7343 28.8446 33.8849 28.6941 33.8849 28.4682V17.5528C33.8849 17.3646 33.7343 17.1764 33.5085 17.1764Z" fill="white"/>
<path d="M15.3657 30.2753C15.3657 30.5012 15.5163 30.6517 15.7421 30.6517H17.2099L16.3066 32.7593C16.269 32.8722 16.269 33.0228 16.3443 33.1357C16.4195 33.2486 16.5325 33.2862 16.6454 33.2862H18.0755C18.2261 33.2862 18.3766 33.2109 18.4142 33.0604L19.167 31.2539L19.995 33.098C20.0702 33.2486 20.1831 33.3239 20.3337 33.3239L21.7262 33.2862C21.8391 33.2862 21.9897 33.2109 22.0273 33.098C22.1026 32.9851 22.1026 32.8722 22.0649 32.7593L21.1617 30.6517H22.6671C22.8929 30.6517 23.0435 30.5012 23.0435 30.2753V29.5979H15.3657V30.2753Z" fill="white"/>
<path d="M22.5169 9.19653H14.5373C12.1284 9.19653 10.1712 11.1538 10.1712 13.5627C10.1712 15.9716 12.1284 17.9289 14.5373 17.9289C16.3064 17.9289 17.8496 16.8373 18.5271 15.3318C19.2046 16.875 20.7479 17.9289 22.5169 17.9289C24.9258 17.9289 26.8831 15.9716 26.8831 13.5627C26.9207 11.1538 24.9635 9.19653 22.5169 9.19653ZM23.2697 11.0785C23.345 10.8903 23.5708 10.815 23.759 10.8903C24.1354 11.0785 24.5118 11.342 24.7753 11.6807C24.8882 11.8313 24.8882 12.0948 24.7 12.2077C24.5494 12.3206 24.286 12.3206 24.173 12.17C23.9848 11.9066 23.6837 11.7184 23.4203 11.5678C23.2697 11.4925 23.1944 11.2667 23.2697 11.0785ZM15.2901 11.0785C15.3654 10.8903 15.5913 10.815 15.7794 10.8903C16.1558 11.0785 16.5322 11.342 16.7957 11.7184C16.9463 11.8689 16.9086 12.1324 16.7581 12.2453C16.5699 12.3959 16.344 12.3582 16.2311 12.2077C16.0429 11.9442 15.7418 11.756 15.4783 11.6055C15.2901 11.4925 15.2149 11.2667 15.2901 11.0785ZM11.6768 12.9228C11.7897 12.5088 11.9779 12.0948 12.2413 11.756C12.3543 11.6055 12.6177 11.5678 12.7683 11.6807C12.9189 11.7937 12.9565 12.0571 12.8059 12.2077C12.6177 12.4712 12.4672 12.7723 12.3919 13.0734C12.3543 13.2616 12.2037 13.3745 11.9402 13.3745C11.752 13.3369 11.6015 13.111 11.6768 12.9228ZM12.7683 15.4447C12.6177 15.5952 12.3543 15.5576 12.2413 15.407C11.9779 15.0683 11.752 14.6543 11.6768 14.2402C11.6391 14.052 11.752 13.8262 11.9779 13.7885C12.1661 13.7509 12.3919 13.8638 12.4295 14.0897C12.5048 14.3908 12.6554 14.6919 12.8436 14.9554C12.9565 15.1059 12.9189 15.3318 12.7683 15.4447ZM13.2576 10.9279C13.6716 10.7397 14.0857 10.6268 14.5373 10.6268C14.7632 10.6268 14.9137 10.815 14.9137 11.0032C14.9137 11.2291 14.7632 11.3796 14.5373 11.3796C14.1986 11.3796 13.8975 11.4549 13.5964 11.6055C13.4082 11.6807 13.1823 11.6055 13.1071 11.4173C12.9941 11.2291 13.0694 11.0032 13.2576 10.9279ZM14.575 16.4986C14.3868 16.4986 13.9351 16.5362 13.2576 16.1975C13.0694 16.1222 12.9941 15.8964 13.0694 15.7082C13.1447 15.52 13.3705 15.4447 13.5587 15.52C13.8598 15.6705 14.161 15.7458 14.4997 15.7458C14.7255 15.7458 14.8761 15.934 14.8761 16.1222C14.9137 16.348 14.7632 16.4986 14.575 16.4986ZM14.5373 14.3155C14.1233 14.3155 13.7846 13.9767 13.7846 13.5627C13.7846 13.1487 14.1233 12.8099 14.5373 12.8099C14.9514 12.8099 15.2901 13.1487 15.2901 13.5627C15.2901 13.9767 14.9514 14.3155 14.5373 14.3155ZM16.8334 15.3694C16.5699 15.7082 16.2311 16.0093 15.8171 16.1975C15.7794 16.2351 15.7042 16.2351 15.6665 16.2351C15.516 16.2351 15.4031 16.1598 15.3278 16.0093C15.2149 15.8211 15.3278 15.5952 15.4783 15.52C15.7795 15.3694 16.0429 15.1812 16.2311 14.9177C16.344 14.7672 16.6075 14.7295 16.7581 14.8424C16.9463 14.9554 16.9839 15.2188 16.8334 15.3694ZM17.3979 14.2026C17.3603 14.3908 17.2097 14.5037 17.0216 14.5037C16.7957 14.5037 16.6075 14.2779 16.6452 14.052C16.7204 13.7509 16.7204 13.4121 16.6452 13.0734C16.6075 12.8852 16.7204 12.6594 16.9086 12.6217C17.0968 12.5841 17.3227 12.697 17.3603 12.8852C17.4732 13.3369 17.4732 13.7885 17.3979 14.2026ZM18.5271 11.7937C18.1884 11.0409 17.6614 10.401 16.9839 9.94932H20.0703C19.3928 10.401 18.8659 11.0409 18.5271 11.7937ZM19.6563 12.9228C19.7692 12.5088 19.9574 12.0948 20.2209 11.756C20.3715 11.6055 20.5973 11.5678 20.7479 11.6807C20.8984 11.7937 20.9361 12.0571 20.8231 12.2077C20.6349 12.4712 20.4844 12.7723 20.4091 13.0734C20.3715 13.2616 20.2209 13.3745 19.9574 13.3745C19.7692 13.3369 19.6187 13.111 19.6563 12.9228ZM20.7855 15.4447C20.6349 15.5952 20.3715 15.5576 20.2585 15.407C19.9951 15.0683 19.7692 14.6543 19.694 14.2402C19.6563 14.052 19.7692 13.8262 19.9951 13.7885C20.1833 13.7509 20.4091 13.8638 20.4467 14.0897C20.522 14.3908 20.6726 14.6919 20.8608 14.9554C20.9737 15.1059 20.9361 15.3318 20.7855 15.4447ZM21.2372 10.9279C21.6512 10.7397 22.0652 10.6268 22.5169 10.6268C22.7051 10.6268 22.8933 10.815 22.8933 11.0032C22.8933 11.2291 22.7427 11.3796 22.5169 11.3796C22.1782 11.3796 21.877 11.4549 21.5759 11.6055C21.3877 11.6807 21.1619 11.6055 21.0866 11.4173C20.9737 11.2291 21.049 11.0032 21.2372 10.9279ZM22.5545 16.4986C22.0652 16.4986 21.6512 16.3857 21.2372 16.1975C21.049 16.1222 20.9737 15.8964 21.049 15.7082C21.1619 15.52 21.3501 15.4447 21.5383 15.52C21.8394 15.6705 22.1405 15.7458 22.4793 15.7458C22.6675 15.7458 22.8557 15.934 22.8557 16.1222C22.9309 16.348 22.7804 16.4986 22.5545 16.4986ZM22.5169 14.3155C22.1029 14.3155 21.7641 13.9767 21.7641 13.5627C21.7641 13.1487 22.1029 12.8099 22.5169 12.8099C22.9309 12.8099 23.2697 13.1487 23.2697 13.5627C23.2697 13.9767 22.9309 14.3155 22.5169 14.3155ZM24.8506 15.3694C24.5871 15.7082 24.2483 16.0093 23.8343 16.1975C23.6461 16.3104 23.4203 16.1975 23.345 16.0093C23.2321 15.8211 23.345 15.5952 23.5332 15.52C23.8343 15.3694 24.0978 15.1812 24.286 14.9177C24.3989 14.7672 24.6624 14.7295 24.8129 14.8424C24.9635 14.9554 24.9635 15.2188 24.8506 15.3694ZM24.9635 14.4661C24.7753 14.4284 24.6247 14.2402 24.6624 14.0144C24.7376 13.7133 24.7376 13.3745 24.6624 13.0358C24.5494 12.5464 25.2646 12.3959 25.4151 12.8476C25.5281 13.4874 25.5281 14.6543 24.9635 14.4661Z" fill="white"/>
</svg>
